<svg width="3982" height="2078" viewBox="0 0 3982 2078" fill="none" xmlns="http://www.w3.org/2000/svg">
<path d="M1807.56 405.583C1807.56 405.58 1807.56 405.576 1807.56 405.573L1903.41 57.5427C1911.99 26.3723 1940.59 5.03951 1972.92 4.71841C2078.95 3.66535 2188.95 -3.76538 2292.6 2.45793C2486.85 14.1034 2654.67 134.632 2704.27 325.831C2788.18 649.249 2526.79 980.105 2207.72 1024.96C2051.04 1034.07 1893.4 1029.49 1736.12 1029.35C1689.5 1029.31 1654.94 985.506 1666.4 940.319L1701.01 803.793C1712.36 759.021 1678.52 715.535 1632.34 715.535H1626.76C1579.74 715.535 1545.76 670.562 1558.61 625.327L1573.71 572.191C1582.36 541.726 1610.19 520.705 1641.86 520.705H1887.79C1934.4 520.705 1968.31 564.938 1956.21 609.95L1900.78 816.079C1897.89 826.821 1900.29 838.551 1911.35 839.739V839.739C1995.97 848.816 2176.9 844.255 2255.8 816.271C2448.55 747.859 2602.07 490.595 2480.65 301.433C2402.73 180.023 2255.92 189.721 2125.4 194.071C2094.32 195.107 2066.92 215.506 2057.86 245.255L2022.78 360.377C2014.59 387.256 1989.79 405.623 1961.69 405.623H1807.57C1807.55 405.623 1807.54 405.598 1807.56 405.583V405.583Z" fill="#16FEED"/>
<path d="M2273.31 405.579C2319.84 405.579 2353.74 449.669 2341.78 494.636L2324.12 561.055C2315.86 592.091 2287.76 613.693 2255.65 613.693H2191C2144.76 613.693 2110.91 570.119 2122.35 525.319L2139.31 458.9C2147.32 427.529 2175.58 405.579 2207.96 405.579H2273.31Z" fill="#16FEED"/>
<path d="M1627.19 219.604C1673.61 219.604 1707.49 263.497 1695.73 308.401L1684.13 352.68C1675.97 383.844 1647.81 405.577 1615.6 405.577H1567.24C1520.82 405.577 1486.95 361.684 1498.71 316.78L1510.3 272.501C1518.46 241.337 1546.62 219.604 1578.84 219.604H1627.19Z" fill="#16FEED"/>
<path d="M1353.71 520.706C1399.8 520.706 1433.66 564.021 1422.48 608.736V608.736C1414.6 640.275 1386.24 662.4 1353.73 662.4V662.4C1307.64 662.4 1273.77 619.085 1284.95 574.37V574.37C1292.84 542.831 1321.2 520.706 1353.71 520.706V520.706Z" fill="#16FEED"/>
<path d="M18.2998 1858.9L89.084 1355.46H237.875C312.993 1355.46 370.776 1373.76 411.224 1410.36C452.154 1446.47 472.619 1498.23 472.619 1565.65C472.619 1608.02 466.6 1647.02 454.562 1682.66C442.524 1718.29 424.226 1749.35 399.668 1775.83C375.11 1802.32 343.811 1822.78 305.77 1837.23C268.211 1851.67 223.67 1858.9 172.147 1858.9H18.2998ZM146.867 1754.89H169.98C211.873 1754.89 245.339 1749.11 270.378 1737.55C295.899 1725.51 315.16 1709.86 328.161 1690.6C341.162 1671.34 349.83 1650.64 354.164 1628.49C358.497 1605.85 360.664 1584.19 360.664 1563.48C360.664 1535.55 355.127 1514.12 344.052 1499.2C333.458 1484.27 318.29 1473.92 298.547 1468.14C278.805 1462.36 254.969 1459.47 227.041 1459.47H188.037L146.867 1754.89ZM486.32 1858.9L557.104 1355.46H895.135L881.411 1456.58H656.78L643.778 1549.03H857.576L843.13 1650.15H629.333L614.165 1757.78H838.796L824.35 1858.9H486.32ZM885.92 1858.9L956.704 1355.46H1071.55L1241.29 1710.1H1212.39L1262.23 1355.46H1375.63L1304.85 1858.9H1190L1021.71 1503.53H1049.88L999.319 1858.9H885.92ZM1486.32 1858.9L1542.65 1456.58H1395.31L1409.75 1355.46H1818.57L1804.12 1456.58H1657.5L1601.16 1858.9H1486.32ZM2009.27 1867.56C1978.46 1867.56 1950.53 1862.75 1925.49 1853.12C1900.45 1843.01 1879.02 1828.56 1861.21 1809.78C1843.87 1791 1830.39 1768.61 1820.76 1742.61C1811.61 1716.12 1807.03 1686.51 1807.03 1653.77C1807.03 1613.8 1813.05 1575.52 1825.09 1538.92C1837.61 1502.33 1855.43 1469.58 1878.54 1440.69C1902.14 1411.8 1930.3 1388.93 1963.05 1372.07C1996.27 1355.22 2033.83 1346.79 2075.73 1346.79C2127.25 1346.79 2169.86 1359.8 2203.57 1385.8C2237.28 1411.32 2259.43 1446.23 2270.02 1490.53L2209.35 1509.31C2201.64 1476.56 2185.99 1451.53 2162.4 1434.19C2139.29 1416.37 2109.91 1407.47 2074.28 1407.47C2041.06 1407.47 2011.68 1414.45 1986.16 1428.41C1961.12 1441.9 1939.94 1460.19 1922.6 1483.31C1905.27 1506.42 1892.02 1532.66 1882.87 1562.04C1874.21 1590.93 1869.87 1621.02 1869.87 1652.32C1869.87 1700.47 1882.15 1738.27 1906.71 1765.72C1931.75 1793.17 1966.66 1806.89 2011.44 1806.89C2049 1806.89 2082.23 1797.5 2111.12 1778.72C2140.49 1759.94 2163.6 1734.42 2180.46 1702.16L2237.52 1727.44C2215.37 1771.26 2184.31 1805.69 2144.34 1830.73C2104.38 1855.28 2059.35 1867.56 2009.27 1867.56ZM2503.41 1867.56C2461.52 1867.56 2425.4 1858.9 2395.07 1841.56C2364.73 1823.74 2341.38 1798.95 2325.01 1767.17C2308.63 1734.9 2300.45 1697.1 2300.45 1653.77C2300.45 1614.76 2306.47 1576.96 2318.5 1540.37C2331.02 1503.77 2348.84 1471.03 2371.95 1442.14C2395.07 1412.76 2423.24 1389.65 2456.46 1372.8C2489.69 1355.46 2527.49 1346.79 2569.86 1346.79C2612.23 1346.79 2648.59 1355.7 2678.93 1373.52C2709.26 1390.85 2732.62 1415.41 2748.99 1447.19C2765.84 1478.97 2774.27 1516.77 2774.27 1560.59C2774.27 1600.56 2768.01 1638.84 2755.49 1675.43C2743.45 1712.03 2725.63 1744.77 2702.04 1773.67C2678.93 1802.56 2650.52 1825.43 2616.81 1842.28C2583.58 1859.14 2545.78 1867.56 2503.41 1867.56ZM2505.58 1806.89C2538.8 1806.89 2567.93 1800.15 2592.97 1786.67C2618.49 1773.18 2639.92 1754.89 2657.26 1731.77C2675.07 1708.18 2688.32 1681.94 2696.98 1653.04C2706.13 1623.67 2710.71 1593.09 2710.71 1561.31C2710.71 1513.64 2698.19 1476.08 2673.15 1448.64C2648.11 1421.19 2613.2 1407.47 2568.42 1407.47C2535.19 1407.47 2505.82 1414.45 2480.3 1428.41C2454.78 1441.9 2433.35 1460.43 2416.01 1484.03C2399.16 1507.14 2386.16 1533.38 2377.01 1562.76C2368.34 1591.65 2364.01 1621.74 2364.01 1653.04C2364.01 1684.82 2369.55 1712.27 2380.62 1735.38C2391.7 1758.5 2407.83 1776.31 2429.01 1788.83C2450.2 1800.87 2475.72 1806.89 2505.58 1806.89ZM2815.47 1858.9L2886.26 1355.46H2979.43L3082 1753.44H3070.44L3284.24 1355.46H3378.13L3307.35 1858.9H3243.79L3304.46 1429.13L3309.52 1429.86L3099.33 1816.28H3037.21L2934.65 1429.86L2939.71 1429.13L2879.03 1858.9H2815.47ZM3406.93 1858.9L3477.71 1355.46H3570.89L3673.45 1753.44H3661.9L3875.69 1355.46H3969.59L3898.81 1858.9H3835.25L3895.92 1429.13L3900.97 1429.86L3690.79 1816.28H3628.67L3526.11 1429.86L3531.16 1429.13L3470.49 1858.9H3406.93Z" fill="#212121"/>
</svg>
