<svg width="3232" height="664" viewBox="0 0 3232 664" fill="none" xmlns="http://www.w3.org/2000/svg">
<path d="M350.411 261.35C350.413 261.348 350.414 261.346 350.415 261.343L412.082 37.4248C417.605 17.37 436.004 3.64471 456.804 3.43812C525.019 2.76059 595.797 -2.02026 662.482 1.98375C787.463 9.47635 895.436 87.0233 927.344 210.039C981.33 418.122 813.16 630.991 607.869 659.851C507.062 665.711 405.638 662.767 304.446 662.678C274.454 662.651 252.221 634.466 259.591 605.393L281.86 517.554C289.163 488.748 267.393 460.77 237.676 460.77H234.09C203.834 460.77 181.974 431.835 190.242 402.731L199.954 368.544C205.523 348.943 223.425 335.419 243.802 335.419H402.034C432.022 335.419 453.84 363.878 446.053 392.837L410.391 525.459C408.532 532.37 410.076 539.917 417.192 540.681V540.681C471.634 546.522 588.04 543.587 638.808 525.582C762.82 481.567 861.591 316.046 783.475 194.341C733.337 116.228 638.884 122.467 554.91 125.266C534.912 125.932 517.282 139.057 511.45 158.197L488.881 232.265C483.611 249.559 467.657 261.376 449.578 261.376H350.422C350.408 261.376 350.402 261.36 350.411 261.35V261.35Z" fill="#16FEED"/>
<path d="M650.078 261.348C680.014 261.348 701.823 289.715 694.129 318.646L682.763 361.379C677.453 381.347 659.375 395.246 638.712 395.246H597.116C567.368 395.246 545.591 367.211 552.951 338.387L563.861 295.654C569.015 275.47 587.196 261.348 608.027 261.348H650.078Z" fill="#16FEED"/>
<path d="M234.377 141.694C264.242 141.694 286.039 169.935 278.472 198.825L271.011 227.314C265.76 247.364 247.643 261.348 226.916 261.348H195.804C165.939 261.348 144.142 233.107 151.709 204.217L159.17 175.728C164.422 155.677 182.539 141.694 203.265 141.694H234.377Z" fill="#16FEED"/>
<path d="M58.3971 335.419C88.0517 335.419 109.838 363.287 102.645 392.057V392.057C97.5724 412.348 79.3239 426.584 58.4076 426.584V426.584C28.753 426.584 6.96713 398.715 14.1594 369.946V369.946C19.2324 349.654 37.4809 335.419 58.3971 335.419V335.419Z" fill="#16FEED"/>
<path d="M982.618 493.891L1028.16 169.987H1245.65L1236.82 235.046H1092.29L1083.93 294.53H1221.48L1212.19 359.589H1074.63L1064.87 428.831H1209.4L1200.1 493.891H982.618ZM1239.72 493.891L1285.26 169.987H1359.15L1468.35 398.16H1449.77L1481.83 169.987H1554.79L1509.25 493.891H1435.36L1327.08 265.253H1345.21L1312.68 493.891H1239.72ZM1626 493.891L1662.25 235.046H1567.45L1576.75 169.987H1839.77L1830.48 235.046H1736.14L1699.89 493.891H1626ZM1962.47 499.468C1942.64 499.468 1924.67 496.37 1908.56 490.173C1892.45 483.667 1878.67 474.373 1867.21 462.291C1856.05 450.208 1847.38 435.802 1841.18 419.072C1835.29 402.033 1832.35 382.98 1832.35 361.913C1832.35 336.199 1836.22 311.569 1843.97 288.024C1852.02 264.478 1863.49 243.411 1878.36 224.823C1893.54 206.234 1911.66 191.518 1932.73 180.675C1954.11 169.832 1978.27 164.41 2005.22 164.41C2038.37 164.41 2065.79 172.775 2087.48 189.505C2109.17 205.924 2123.42 228.385 2130.23 256.888L2091.2 268.97C2086.24 247.903 2076.17 231.793 2060.99 220.64C2046.12 209.177 2027.22 203.446 2004.3 203.446C1982.92 203.446 1964.02 207.938 1947.6 216.923C1931.49 225.597 1917.86 237.37 1906.71 252.241C1895.55 267.111 1887.03 283.996 1881.15 302.894C1875.57 321.483 1872.78 340.846 1872.78 360.983C1872.78 391.964 1880.68 416.284 1896.48 433.943C1912.59 451.602 1935.05 460.432 1963.87 460.432C1988.03 460.432 2009.41 454.391 2028 442.308C2046.89 430.226 2061.76 413.806 2072.61 393.049L2109.32 409.313C2095.07 437.506 2075.09 459.657 2049.37 475.767C2023.66 491.568 1994.69 499.468 1962.47 499.468ZM2280.39 499.468C2253.44 499.468 2230.2 493.891 2210.69 482.738C2191.17 471.275 2176.14 455.32 2165.61 434.873C2155.08 414.115 2149.81 389.796 2149.81 361.913C2149.81 336.818 2153.68 312.498 2161.43 288.953C2169.48 265.408 2180.94 244.341 2195.81 225.752C2210.69 206.854 2228.81 191.983 2250.19 181.14C2271.56 169.987 2295.88 164.41 2323.15 164.41C2350.41 164.41 2373.8 170.141 2393.32 181.604C2412.84 192.757 2427.86 208.558 2438.39 229.005C2449.24 249.452 2454.66 273.772 2454.66 301.965C2454.66 327.679 2450.63 352.309 2442.58 375.854C2434.83 399.4 2423.37 420.467 2408.19 439.055C2393.32 457.644 2375.04 472.359 2353.35 483.203C2331.98 494.046 2307.66 499.468 2280.39 499.468ZM2281.79 460.432C2303.16 460.432 2321.91 456.095 2338.02 447.42C2354.44 438.745 2368.22 426.973 2379.38 412.102C2390.84 396.921 2399.36 380.037 2404.94 361.448C2410.82 342.55 2413.76 322.877 2413.76 302.43C2413.76 271.759 2405.71 247.594 2389.6 229.934C2373.49 212.275 2351.03 203.446 2322.22 203.446C2300.84 203.446 2281.94 207.938 2265.52 216.923C2249.1 225.597 2235.32 237.525 2224.16 252.705C2213.32 267.576 2204.95 284.461 2199.07 303.359C2193.49 321.948 2190.7 341.311 2190.7 361.448C2190.7 381.895 2194.27 399.555 2201.39 414.425C2208.52 429.296 2218.9 440.759 2232.53 448.814C2246.16 456.559 2262.58 460.432 2281.79 460.432ZM2481.17 493.891L2526.71 169.987H2586.66L2652.65 426.043H2645.21L2782.77 169.987H2843.18L2797.64 493.891H2756.74L2795.78 217.387L2799.03 217.852L2663.8 466.473H2623.84L2557.85 217.852L2561.1 217.387L2522.06 493.891H2481.17ZM2861.71 493.891L2907.25 169.987H2967.2L3033.19 426.043H3025.75L3163.31 169.987H3223.72L3178.18 493.891H3137.28L3176.32 217.387L3179.57 217.852L3044.34 466.473H3004.37L2938.39 217.852L2941.64 217.387L2902.6 493.891H2861.71Z" fill="#212121"/>
</svg>
