<svg width="3982" height="2078" viewBox="0 0 3982 2078" fill="none" xmlns="http://www.w3.org/2000/svg">
<path d="M1807.12 405.583C1807.12 405.58 1807.12 405.576 1807.13 405.573L1902.97 57.5427C1911.56 26.3723 1940.15 5.03951 1972.48 4.71841C2078.51 3.66535 2188.52 -3.76538 2292.16 2.45793C2486.42 14.1034 2654.24 134.632 2703.83 325.831C2787.74 649.249 2526.36 980.105 2207.28 1024.96C2050.6 1034.07 1892.96 1029.49 1735.68 1029.35C1689.06 1029.31 1654.51 985.506 1665.96 940.319L1700.57 803.793C1711.92 759.021 1678.09 715.535 1631.9 715.535H1626.32C1579.3 715.535 1545.32 670.562 1558.17 625.327L1573.27 572.191C1581.92 541.726 1609.75 520.705 1641.42 520.705H1887.36C1933.97 520.705 1967.88 564.938 1955.77 609.95L1900.34 816.079C1897.46 826.821 1899.86 838.551 1910.92 839.739V839.739C1995.53 848.816 2176.46 844.255 2255.37 816.271C2448.11 747.859 2601.63 490.595 2480.22 301.433C2402.29 180.023 2255.48 189.721 2124.97 194.071C2093.88 195.107 2066.48 215.506 2057.42 245.255L2022.34 360.377C2014.15 387.256 1989.35 405.623 1961.25 405.623H1807.14C1807.12 405.623 1807.1 405.598 1807.12 405.583V405.583Z" fill="#212121"/>
<path d="M2272.88 405.579C2319.41 405.579 2353.3 449.669 2341.34 494.636L2323.68 561.055C2315.42 592.091 2287.33 613.693 2255.21 613.693H2190.56C2144.32 613.693 2110.48 570.119 2121.92 525.319L2138.87 458.9C2146.88 427.529 2175.14 405.579 2207.52 405.579H2272.88Z" fill="#212121"/>
<path d="M1626.75 219.604C1673.17 219.604 1707.05 263.497 1695.28 308.401L1683.69 352.68C1675.53 383.844 1647.37 405.577 1615.15 405.577H1566.8C1520.38 405.577 1486.5 361.684 1498.26 316.78L1509.86 272.501C1518.02 241.337 1546.18 219.604 1578.39 219.604H1626.75Z" fill="#212121"/>
<path d="M1353.26 520.706C1399.35 520.706 1433.21 564.021 1422.03 608.736V608.736C1414.15 640.275 1385.79 662.4 1353.28 662.4V662.4C1307.19 662.4 1273.32 619.085 1284.5 574.37V574.37C1292.39 542.831 1320.75 520.706 1353.26 520.706V520.706Z" fill="#212121"/>
<path d="M17.8505 1858.9L88.6347 1355.46H237.426C312.544 1355.46 370.327 1373.76 410.775 1410.36C451.705 1446.47 472.17 1498.23 472.17 1565.65C472.17 1608.02 466.151 1647.02 454.112 1682.66C442.074 1718.29 423.776 1749.35 399.219 1775.83C374.661 1802.32 343.362 1822.78 305.321 1837.23C267.762 1851.67 223.221 1858.9 171.698 1858.9H17.8505ZM146.418 1754.89H169.531C211.424 1754.89 244.89 1749.11 269.929 1737.55C295.45 1725.51 314.711 1709.86 327.712 1690.6C340.713 1671.34 349.381 1650.64 353.714 1628.49C358.048 1605.85 360.215 1584.19 360.215 1563.48C360.215 1535.55 354.677 1514.12 343.602 1499.2C333.009 1484.27 317.841 1473.92 298.098 1468.14C278.356 1462.36 254.52 1459.47 226.592 1459.47H187.588L146.418 1754.89ZM485.87 1858.9L556.655 1355.46H894.685L880.962 1456.58H656.33L643.329 1549.03H857.126L842.681 1650.15H628.883L613.715 1757.78H838.347L823.901 1858.9H485.87ZM885.471 1858.9L956.255 1355.46H1071.1L1240.84 1710.1H1211.94L1261.78 1355.46H1375.18L1304.4 1858.9H1189.55L1021.26 1503.53H1049.43L998.87 1858.9H885.471ZM1485.87 1858.9L1542.21 1456.58H1394.86L1409.3 1355.46H1818.12L1803.67 1456.58H1657.05L1600.71 1858.9H1485.87ZM2008.83 1867.56C1978.01 1867.56 1950.08 1862.75 1925.04 1853.12C1900 1843.01 1878.57 1828.56 1860.76 1809.78C1843.42 1791 1829.94 1768.61 1820.31 1742.61C1811.16 1716.12 1806.59 1686.51 1806.59 1653.77C1806.59 1613.8 1812.6 1575.52 1824.64 1538.92C1837.16 1502.33 1854.98 1469.58 1878.09 1440.69C1901.69 1411.8 1929.86 1388.93 1962.6 1372.07C1995.82 1355.22 2033.38 1346.79 2075.28 1346.79C2126.8 1346.79 2169.41 1359.8 2203.12 1385.8C2236.83 1411.32 2258.98 1446.23 2269.57 1490.53L2208.9 1509.31C2201.2 1476.56 2185.55 1451.53 2161.95 1434.19C2138.84 1416.37 2109.46 1407.47 2073.83 1407.47C2040.61 1407.47 2011.23 1414.45 1985.71 1428.41C1960.67 1441.9 1939.49 1460.19 1922.15 1483.31C1904.82 1506.42 1891.57 1532.66 1882.43 1562.04C1873.76 1590.93 1869.42 1621.02 1869.42 1652.32C1869.42 1700.47 1881.7 1738.27 1906.26 1765.72C1931.3 1793.17 1966.21 1806.89 2010.99 1806.89C2048.55 1806.89 2081.78 1797.5 2110.67 1778.72C2140.04 1759.94 2163.15 1734.42 2180.01 1702.16L2237.07 1727.44C2214.92 1771.26 2183.86 1805.69 2143.89 1830.73C2103.93 1855.28 2058.9 1867.56 2008.83 1867.56ZM2502.96 1867.56C2461.07 1867.56 2424.95 1858.9 2394.62 1841.56C2364.28 1823.74 2340.93 1798.95 2324.56 1767.17C2308.18 1734.9 2300 1697.1 2300 1653.77C2300 1614.76 2306.02 1576.96 2318.06 1540.37C2330.57 1503.77 2348.39 1471.03 2371.5 1442.14C2394.62 1412.76 2422.79 1389.65 2456.01 1372.8C2489.24 1355.46 2527.04 1346.79 2569.41 1346.79C2611.79 1346.79 2648.14 1355.7 2678.48 1373.52C2708.81 1390.85 2732.17 1415.41 2748.54 1447.19C2765.39 1478.97 2773.82 1516.77 2773.82 1560.59C2773.82 1600.56 2767.56 1638.84 2755.04 1675.43C2743 1712.03 2725.18 1744.77 2701.59 1773.67C2678.48 1802.56 2650.07 1825.43 2616.36 1842.28C2583.13 1859.14 2545.34 1867.56 2502.96 1867.56ZM2505.13 1806.89C2538.35 1806.89 2567.49 1800.15 2592.52 1786.67C2618.05 1773.18 2639.47 1754.89 2656.81 1731.77C2674.62 1708.18 2687.87 1681.94 2696.53 1653.04C2705.68 1623.67 2710.26 1593.09 2710.26 1561.31C2710.26 1513.64 2697.74 1476.08 2672.7 1448.64C2647.66 1421.19 2612.75 1407.47 2567.97 1407.47C2534.74 1407.47 2505.37 1414.45 2479.85 1428.41C2454.33 1441.9 2432.9 1460.43 2415.56 1484.03C2398.71 1507.14 2385.71 1533.38 2376.56 1562.76C2367.89 1591.65 2363.56 1621.74 2363.56 1653.04C2363.56 1684.82 2369.1 1712.27 2380.17 1735.38C2391.25 1758.5 2407.38 1776.31 2428.57 1788.83C2449.75 1800.87 2475.27 1806.89 2505.13 1806.89ZM2815.02 1858.9L2885.81 1355.46H2978.98L3081.55 1753.44H3069.99L3283.79 1355.46H3377.69L3306.9 1858.9H3243.34L3304.01 1429.13L3309.07 1429.86L3098.88 1816.28H3036.77L2934.2 1429.86L2939.26 1429.13L2878.58 1858.9H2815.02ZM3406.48 1858.9L3477.27 1355.46H3570.44L3673.01 1753.44H3661.45L3875.25 1355.46H3969.14L3898.36 1858.9H3834.8L3895.47 1429.13L3900.53 1429.86L3690.34 1816.28H3628.22L3525.66 1429.86L3530.71 1429.13L3470.04 1858.9H3406.48Z" fill="#212121"/>
</svg>
