<svg width="3981" height="2078" viewBox="0 0 3981 2078" fill="none" xmlns="http://www.w3.org/2000/svg">
<path d="M1806.6 405.583C1806.6 405.58 1806.61 405.576 1806.61 405.573L1902.45 57.5427C1911.04 26.3723 1939.63 5.03951 1971.96 4.71841C2077.99 3.66535 2188 -3.76538 2291.64 2.45793C2485.9 14.1034 2653.72 134.632 2703.31 325.831C2787.22 649.249 2525.84 980.105 2206.76 1024.96C2050.08 1034.07 1892.44 1029.49 1735.16 1029.35C1688.54 1029.31 1653.99 985.506 1665.44 940.319L1700.05 803.793C1711.4 759.021 1677.57 715.535 1631.38 715.535H1625.81C1578.78 715.535 1544.8 670.562 1557.65 625.327L1572.75 572.191C1581.4 541.726 1609.23 520.705 1640.9 520.705H1886.84C1933.45 520.705 1967.36 564.938 1955.25 609.95L1899.82 816.079C1896.94 826.821 1899.34 838.551 1910.4 839.739V839.739C1995.01 848.816 2175.94 844.255 2254.85 816.271C2447.59 747.859 2601.11 490.595 2479.7 301.433C2401.77 180.023 2254.96 189.721 2124.45 194.071C2093.36 195.107 2065.96 215.506 2056.9 245.255L2021.82 360.377C2013.63 387.256 1988.83 405.623 1960.73 405.623H1806.62C1806.6 405.623 1806.59 405.598 1806.6 405.583V405.583Z" fill="#16FEED"/>
<path d="M2272.36 405.579C2318.89 405.579 2352.78 449.669 2340.82 494.636L2323.16 561.055C2314.9 592.091 2286.81 613.693 2254.69 613.693H2190.04C2143.8 613.693 2109.96 570.119 2121.4 525.319L2138.35 458.9C2146.36 427.529 2174.62 405.579 2207 405.579H2272.36Z" fill="#16FEED"/>
<path d="M1626.24 219.604C1672.66 219.604 1706.54 263.497 1694.78 308.401L1683.18 352.68C1675.02 383.844 1646.86 405.577 1614.64 405.577H1566.29C1519.87 405.577 1485.99 361.684 1497.75 316.78L1509.35 272.501C1517.51 241.337 1545.67 219.604 1577.89 219.604H1626.24Z" fill="#16FEED"/>
<path d="M1352.75 520.706C1398.84 520.706 1432.7 564.021 1421.52 608.736V608.736C1413.63 640.275 1385.27 662.4 1352.76 662.4V662.4C1306.67 662.4 1272.81 619.085 1283.99 574.37V574.37C1291.87 542.831 1320.24 520.706 1352.75 520.706V520.706Z" fill="#16FEED"/>
<path d="M17.3349 1858.9L88.1191 1355.46H236.91C312.028 1355.46 369.811 1373.76 410.26 1410.36C451.189 1446.47 471.654 1498.23 471.654 1565.65C471.654 1608.02 465.635 1647.02 453.597 1682.66C441.559 1718.29 423.261 1749.35 398.703 1775.83C374.145 1802.32 342.846 1822.78 304.805 1837.23C267.247 1851.67 222.705 1858.9 171.182 1858.9H17.3349ZM145.902 1754.89H169.015C210.908 1754.89 244.374 1749.11 269.413 1737.55C294.934 1725.51 314.195 1709.86 327.196 1690.6C340.198 1671.34 348.865 1650.64 353.199 1628.49C357.532 1605.85 359.699 1584.19 359.699 1563.48C359.699 1535.55 354.162 1514.12 343.087 1499.2C332.493 1484.27 317.325 1473.92 297.583 1468.14C277.84 1462.36 254.005 1459.47 226.076 1459.47H187.073L145.902 1754.89ZM485.355 1858.9L556.139 1355.46H894.17L880.446 1456.58H655.815L642.814 1549.03H856.611L842.165 1650.15H628.368L613.2 1757.78H837.831L823.386 1858.9H485.355ZM884.955 1858.9L955.739 1355.46H1070.58L1240.32 1710.1H1211.43L1261.27 1355.46H1374.67L1303.88 1858.9H1189.04L1020.75 1503.53H1048.91L998.354 1858.9H884.955ZM1485.35 1858.9L1541.69 1456.58H1394.34L1408.79 1355.46H1817.6L1803.16 1456.58H1656.53L1600.19 1858.9H1485.35ZM2008.31 1867.56C1977.49 1867.56 1949.56 1862.75 1924.52 1853.12C1899.49 1843.01 1878.06 1828.56 1860.24 1809.78C1842.91 1791 1829.42 1768.61 1819.79 1742.61C1810.64 1716.12 1806.07 1686.51 1806.07 1653.77C1806.07 1613.8 1812.09 1575.52 1824.13 1538.92C1836.65 1502.33 1854.46 1469.58 1877.58 1440.69C1901.17 1411.8 1929.34 1388.93 1962.08 1372.07C1995.31 1355.22 2032.87 1346.79 2074.76 1346.79C2126.28 1346.79 2168.9 1359.8 2202.61 1385.8C2236.31 1411.32 2258.46 1446.23 2269.06 1490.53L2208.38 1509.31C2200.68 1476.56 2185.03 1451.53 2161.44 1434.19C2138.32 1416.37 2108.95 1407.47 2073.32 1407.47C2040.09 1407.47 2010.72 1414.45 1985.2 1428.41C1960.16 1441.9 1938.97 1460.19 1921.64 1483.31C1904.3 1506.42 1891.06 1532.66 1881.91 1562.04C1873.24 1590.93 1868.91 1621.02 1868.91 1652.32C1868.91 1700.47 1881.19 1738.27 1905.75 1765.72C1930.78 1793.17 1965.7 1806.89 2010.48 1806.89C2048.04 1806.89 2081.26 1797.5 2110.15 1778.72C2139.53 1759.94 2162.64 1734.42 2179.49 1702.16L2236.55 1727.44C2214.4 1771.26 2183.34 1805.69 2143.38 1830.73C2103.41 1855.28 2058.39 1867.56 2008.31 1867.56ZM2502.45 1867.56C2460.55 1867.56 2424.44 1858.9 2394.1 1841.56C2363.77 1823.74 2340.41 1798.95 2324.04 1767.17C2307.67 1734.9 2299.48 1697.1 2299.48 1653.77C2299.48 1614.76 2305.5 1576.96 2317.54 1540.37C2330.06 1503.77 2347.88 1471.03 2370.99 1442.14C2394.1 1412.76 2422.27 1389.65 2455.5 1372.8C2488.72 1355.46 2526.52 1346.79 2568.9 1346.79C2611.27 1346.79 2647.63 1355.7 2677.96 1373.52C2708.3 1390.85 2731.65 1415.41 2748.02 1447.19C2764.88 1478.97 2773.3 1516.77 2773.3 1560.59C2773.3 1600.56 2767.04 1638.84 2754.52 1675.43C2742.49 1712.03 2724.67 1744.77 2701.07 1773.67C2677.96 1802.56 2649.55 1825.43 2615.84 1842.28C2582.62 1859.14 2544.82 1867.56 2502.45 1867.56ZM2504.61 1806.89C2537.84 1806.89 2566.97 1800.15 2592.01 1786.67C2617.53 1773.18 2638.96 1754.89 2656.29 1731.77C2674.11 1708.18 2687.35 1681.94 2696.02 1653.04C2705.17 1623.67 2709.74 1593.09 2709.74 1561.31C2709.74 1513.64 2697.22 1476.08 2672.18 1448.64C2647.14 1421.19 2612.23 1407.47 2567.45 1407.47C2534.23 1407.47 2504.85 1414.45 2479.33 1428.41C2453.81 1441.9 2432.38 1460.43 2415.05 1484.03C2398.2 1507.14 2385.19 1533.38 2376.04 1562.76C2367.38 1591.65 2363.04 1621.74 2363.04 1653.04C2363.04 1684.82 2368.58 1712.27 2379.66 1735.38C2390.73 1758.5 2406.86 1776.31 2428.05 1788.83C2449.24 1800.87 2474.76 1806.89 2504.61 1806.89ZM2814.51 1858.9L2885.29 1355.46H2978.47L3081.03 1753.44H3069.48L3283.27 1355.46H3377.17L3306.39 1858.9H3242.82L3303.5 1429.13L3308.55 1429.86L3098.37 1816.28H3036.25L2933.68 1429.86L2938.74 1429.13L2878.07 1858.9H2814.51ZM3405.97 1858.9L3476.75 1355.46H3569.92L3672.49 1753.44H3660.93L3874.73 1355.46H3968.63L3897.84 1858.9H3834.28L3894.95 1429.13L3900.01 1429.86L3689.82 1816.28H3627.71L3525.14 1429.86L3530.2 1429.13L3469.53 1858.9H3405.97Z" fill="white"/>
</svg>
