<svg width="3232" height="664" viewBox="0 0 3232 664" fill="none" xmlns="http://www.w3.org/2000/svg">
<path d="M350.411 260.948C350.413 260.946 350.414 260.944 350.415 260.941L412.082 37.0224C417.605 16.9677 436.004 3.24237 456.804 3.03577C525.019 2.35825 595.797 -2.4226 662.482 1.58141C787.463 9.074 895.436 86.621 927.344 209.636C981.33 417.72 813.16 630.589 607.869 659.448C507.062 665.308 405.638 662.365 304.446 662.275C274.454 662.249 252.221 634.064 259.591 604.991L281.86 517.152C289.163 488.346 267.393 460.368 237.676 460.368H234.09C203.834 460.368 181.974 431.432 190.242 402.329L199.954 368.142C205.523 348.541 223.425 335.016 243.802 335.016H402.034C432.022 335.016 453.84 363.475 446.053 392.435L410.391 525.057C408.532 531.968 410.076 539.515 417.192 540.279V540.279C471.634 546.119 588.04 543.185 638.808 525.18C762.82 481.165 861.591 315.644 783.475 193.939C733.337 115.825 638.884 122.065 554.91 124.863C534.912 125.53 517.282 138.654 511.45 157.795L488.881 231.863C483.611 249.156 467.657 260.973 449.578 260.973H350.422C350.408 260.973 350.402 260.957 350.411 260.948V260.948Z" fill="#16FEED"/>
<path d="M650.078 260.945C680.014 260.945 701.823 289.313 694.129 318.243L682.763 360.977C677.453 380.945 659.375 394.843 638.712 394.843H597.116C567.368 394.843 545.591 366.809 552.951 337.985L563.861 295.251C569.015 275.068 587.196 260.945 608.027 260.945H650.078Z" fill="#16FEED"/>
<path d="M234.377 141.292C264.242 141.292 286.039 169.532 278.472 198.423L271.011 226.912C265.76 246.962 247.643 260.946 226.916 260.946H195.804C165.939 260.946 144.142 232.705 151.709 203.815L159.17 175.326C164.422 155.275 182.539 141.292 203.265 141.292H234.377Z" fill="#16FEED"/>
<path d="M58.3971 335.017C88.0517 335.017 109.838 362.885 102.645 391.654V391.654C97.5724 411.946 79.3239 426.181 58.4076 426.181V426.181C28.753 426.181 6.96713 398.313 14.1594 369.544V369.544C19.2324 349.252 37.4809 335.017 58.3971 335.017V335.017Z" fill="#16FEED"/>
<path d="M982.618 493.489L1028.16 169.584H1245.65L1236.82 234.644H1092.29L1083.93 294.127H1221.48L1212.19 359.187H1074.63L1064.87 428.429H1209.4L1200.1 493.489H982.618ZM1239.72 493.489L1285.26 169.584H1359.15L1468.35 397.758H1449.77L1481.83 169.584H1554.79L1509.25 493.489H1435.36L1327.08 264.85H1345.21L1312.68 493.489H1239.72ZM1626 493.489L1662.25 234.644H1567.45L1576.75 169.584H1839.77L1830.48 234.644H1736.14L1699.89 493.489H1626ZM1962.47 499.065C1942.64 499.065 1924.67 495.967 1908.56 489.771C1892.45 483.265 1878.67 473.971 1867.21 461.888C1856.05 449.806 1847.38 435.4 1841.18 418.67C1835.29 401.631 1832.35 382.577 1832.35 361.51C1832.35 335.796 1836.22 311.167 1843.97 287.621C1852.02 264.076 1863.49 243.009 1878.36 224.42C1893.54 205.832 1911.66 191.116 1932.73 180.273C1954.11 169.429 1978.27 164.008 2005.22 164.008C2038.37 164.008 2065.79 172.373 2087.48 189.102C2109.17 205.522 2123.42 227.983 2130.23 256.485L2091.2 268.568C2086.24 247.501 2076.17 231.391 2060.99 220.238C2046.12 208.775 2027.22 203.044 2004.3 203.044C1982.92 203.044 1964.02 207.536 1947.6 216.52C1931.49 225.195 1917.86 236.968 1906.71 251.838C1895.55 266.709 1887.03 283.594 1881.15 302.492C1875.57 321.08 1872.78 340.443 1872.78 360.581C1872.78 391.562 1880.68 415.882 1896.48 433.541C1912.59 451.2 1935.05 460.029 1963.87 460.029C1988.03 460.029 2009.41 453.988 2028 441.906C2046.89 429.823 2061.76 413.403 2072.61 392.646L2109.32 408.911C2095.07 437.104 2075.09 459.255 2049.37 475.365C2023.66 491.165 1994.69 499.065 1962.47 499.065ZM2280.39 499.065C2253.44 499.065 2230.2 493.489 2210.69 482.336C2191.17 470.873 2176.14 454.918 2165.61 434.47C2155.08 413.713 2149.81 389.393 2149.81 361.51C2149.81 336.416 2153.68 312.096 2161.43 288.551C2169.48 265.005 2180.94 243.938 2195.81 225.35C2210.69 206.451 2228.81 191.581 2250.19 180.737C2271.56 169.584 2295.88 164.008 2323.15 164.008C2350.41 164.008 2373.8 169.739 2393.32 181.202C2412.84 192.355 2427.86 208.155 2438.39 228.603C2449.24 249.05 2454.66 273.37 2454.66 301.563C2454.66 327.277 2450.63 351.906 2442.58 375.452C2434.83 398.997 2423.37 420.064 2408.19 438.653C2393.32 457.241 2375.04 471.957 2353.35 482.8C2331.98 493.644 2307.66 499.065 2280.39 499.065ZM2281.79 460.029C2303.16 460.029 2321.91 455.692 2338.02 447.018C2354.44 438.343 2368.22 426.57 2379.38 411.699C2390.84 396.519 2399.36 379.634 2404.94 361.046C2410.82 342.147 2413.76 322.475 2413.76 302.027C2413.76 271.356 2405.71 247.191 2389.6 229.532C2373.49 211.873 2351.03 203.044 2322.22 203.044C2300.84 203.044 2281.94 207.536 2265.52 216.52C2249.1 225.195 2235.32 237.122 2224.16 252.303C2213.32 267.174 2204.95 284.058 2199.07 302.957C2193.49 321.545 2190.7 340.908 2190.7 361.046C2190.7 381.493 2194.27 399.152 2201.39 414.023C2208.52 428.894 2218.9 440.357 2232.53 448.412C2246.16 456.157 2262.58 460.029 2281.79 460.029ZM2481.17 493.489L2526.71 169.584H2586.66L2652.65 425.641H2645.21L2782.77 169.584H2843.18L2797.64 493.489H2756.74L2795.78 216.985L2799.03 217.45L2663.8 466.071H2623.84L2557.85 217.45L2561.1 216.985L2522.06 493.489H2481.17ZM2861.71 493.489L2907.25 169.584H2967.2L3033.19 425.641H3025.75L3163.31 169.584H3223.72L3178.18 493.489H3137.28L3176.32 216.985L3179.57 217.45L3044.34 466.071H3004.37L2938.39 217.45L2941.64 216.985L2902.6 493.489H2861.71Z" fill="white"/>
</svg>
