<svg width="3232" height="664" viewBox="0 0 3232 664" fill="none" xmlns="http://www.w3.org/2000/svg">
<path d="M350.411 261.149C350.413 261.147 350.414 261.145 350.415 261.142L412.082 37.2236C417.605 17.1689 436.004 3.44354 456.804 3.23695C525.019 2.55942 595.797 -2.22143 662.482 1.78258C787.463 9.27517 895.436 86.8221 927.344 209.837C981.33 417.921 813.16 630.79 607.869 659.65C507.062 665.509 405.638 662.566 304.446 662.476C274.454 662.45 252.221 634.265 259.591 605.192L281.86 517.353C289.163 488.547 267.393 460.569 237.676 460.569H234.09C203.834 460.569 181.974 431.634 190.242 402.53L199.954 368.343C205.523 348.742 223.425 335.217 243.802 335.217H402.034C432.022 335.217 453.84 363.677 446.053 392.636L410.391 525.258C408.532 532.169 410.076 539.716 417.192 540.48V540.48C471.634 546.321 588.04 543.386 638.808 525.381C762.82 481.366 861.591 315.845 783.475 194.14C733.337 116.026 638.884 122.266 554.91 125.065C534.912 125.731 517.282 138.856 511.45 157.996L488.881 232.064C483.611 249.357 467.657 261.175 449.578 261.175H350.422C350.408 261.175 350.402 261.158 350.411 261.149V261.149Z" fill="#212121"/>
<path d="M650.078 261.146C680.014 261.146 701.823 289.514 694.129 318.445L682.763 361.178C677.453 381.146 659.375 395.045 638.712 395.045H597.116C567.368 395.045 545.591 367.01 552.951 338.186L563.861 295.453C569.015 275.269 587.196 261.146 608.027 261.146H650.078Z" fill="#212121"/>
<path d="M234.377 141.493C264.242 141.493 286.039 169.734 278.472 198.624L271.011 227.113C265.76 247.163 247.643 261.147 226.916 261.147H195.804C165.939 261.147 144.142 232.906 151.709 204.016L159.17 175.527C164.422 155.477 182.539 141.493 203.265 141.493H234.377Z" fill="#212121"/>
<path d="M58.3971 335.218C88.0517 335.218 109.838 363.086 102.645 391.855V391.855C97.5724 412.147 79.3239 426.382 58.4076 426.382V426.382C28.753 426.382 6.96713 398.514 14.1594 369.745V369.745C19.2324 349.453 37.4809 335.218 58.3971 335.218V335.218Z" fill="#212121"/>
<path d="M982.618 493.69L1028.16 169.785H1245.65L1236.82 234.845H1092.29L1083.93 294.328H1221.48L1212.19 359.388H1074.63L1064.87 428.63H1209.4L1200.1 493.69H982.618ZM1239.72 493.69L1285.26 169.785H1359.15L1468.35 397.959H1449.77L1481.83 169.785H1554.79L1509.25 493.69H1435.36L1327.08 265.051H1345.21L1312.68 493.69H1239.72ZM1626 493.69L1662.25 234.845H1567.45L1576.75 169.785H1839.77L1830.48 234.845H1736.14L1699.89 493.69H1626ZM1962.47 499.266C1942.64 499.266 1924.67 496.168 1908.56 489.972C1892.45 483.466 1878.67 474.172 1867.21 462.09C1856.05 450.007 1847.38 435.601 1841.18 418.871C1835.29 401.832 1832.35 382.779 1832.35 361.712C1832.35 335.998 1836.22 311.368 1843.97 287.822C1852.02 264.277 1863.49 243.21 1878.36 224.621C1893.54 206.033 1911.66 191.317 1932.73 180.474C1954.11 169.631 1978.27 164.209 2005.22 164.209C2038.37 164.209 2065.79 172.574 2087.48 189.303C2109.17 205.723 2123.42 228.184 2130.23 256.687L2091.2 268.769C2086.24 247.702 2076.17 231.592 2060.99 220.439C2046.12 208.976 2027.22 203.245 2004.3 203.245C1982.92 203.245 1964.02 207.737 1947.6 216.721C1931.49 225.396 1917.86 237.169 1906.71 252.04C1895.55 266.91 1887.03 283.795 1881.15 302.693C1875.57 321.282 1872.78 340.645 1872.78 360.782C1872.78 391.763 1880.68 416.083 1896.48 433.742C1912.59 451.401 1935.05 460.231 1963.87 460.231C1988.03 460.231 2009.41 454.189 2028 442.107C2046.89 430.024 2061.76 413.605 2072.61 392.847L2109.32 409.112C2095.07 437.305 2075.09 459.456 2049.37 475.566C2023.66 491.366 1994.69 499.266 1962.47 499.266ZM2280.39 499.266C2253.44 499.266 2230.2 493.69 2210.69 482.537C2191.17 471.074 2176.14 455.119 2165.61 434.671C2155.08 413.914 2149.81 389.594 2149.81 361.712C2149.81 336.617 2153.68 312.297 2161.43 288.752C2169.48 265.206 2180.94 244.139 2195.81 225.551C2210.69 206.653 2228.81 191.782 2250.19 180.939C2271.56 169.785 2295.88 164.209 2323.15 164.209C2350.41 164.209 2373.8 169.94 2393.32 181.403C2412.84 192.556 2427.86 208.357 2438.39 228.804C2449.24 249.251 2454.66 273.571 2454.66 301.764C2454.66 327.478 2450.63 352.108 2442.58 375.653C2434.83 399.198 2423.37 420.265 2408.19 438.854C2393.32 457.442 2375.04 472.158 2353.35 483.002C2331.98 493.845 2307.66 499.266 2280.39 499.266ZM2281.79 460.231C2303.16 460.231 2321.91 455.893 2338.02 447.219C2354.44 438.544 2368.22 426.771 2379.38 411.901C2390.84 396.72 2399.36 379.835 2404.94 361.247C2410.82 342.349 2413.76 322.676 2413.76 302.228C2413.76 271.557 2405.71 247.392 2389.6 229.733C2373.49 212.074 2351.03 203.245 2322.22 203.245C2300.84 203.245 2281.94 207.737 2265.52 216.721C2249.1 225.396 2235.32 237.324 2224.16 252.504C2213.32 267.375 2204.95 284.26 2199.07 303.158C2193.49 321.746 2190.7 341.109 2190.7 361.247C2190.7 381.694 2194.27 399.353 2201.39 414.224C2208.52 429.095 2218.9 440.558 2232.53 448.613C2246.16 456.358 2262.58 460.231 2281.79 460.231ZM2481.17 493.69L2526.71 169.785H2586.66L2652.65 425.842H2645.21L2782.77 169.785H2843.18L2797.64 493.69H2756.74L2795.78 217.186L2799.03 217.651L2663.8 466.272H2623.84L2557.85 217.651L2561.1 217.186L2522.06 493.69H2481.17ZM2861.71 493.69L2907.25 169.785H2967.2L3033.19 425.842H3025.75L3163.31 169.785H3223.72L3178.18 493.69H3137.28L3176.32 217.186L3179.57 217.651L3044.34 466.272H3004.37L2938.39 217.651L2941.64 217.186L2902.6 493.69H2861.71Z" fill="#212121"/>
</svg>
