<svg width="1080" height="1080" viewBox="0 0 1080 1080" fill="none" xmlns="http://www.w3.org/2000/svg">
<rect width="1080" height="1080" fill="#16FEED"/>
<path d="M462.448 494.58C462.449 494.579 462.45 494.578 462.45 494.576L502.525 349.059C506.114 336.027 518.071 327.107 531.589 326.973C575.919 326.533 621.915 323.426 665.251 326.028C746.472 330.897 816.639 381.292 837.375 461.235C872.459 596.461 763.171 734.797 629.76 753.551C564.249 757.36 498.338 755.447 432.577 755.389C413.086 755.371 398.637 737.055 403.427 718.162L417.899 661.078C422.645 642.358 408.497 624.176 389.185 624.176H386.854C367.193 624.176 352.987 605.372 358.36 586.459L364.671 564.242C368.29 551.504 379.924 542.715 393.166 542.715H495.995C515.484 542.715 529.662 561.209 524.601 580.029L501.426 666.215C500.219 670.706 501.222 675.611 505.846 676.108V676.108C541.226 679.903 616.874 677.996 649.866 666.295C730.457 637.691 794.645 530.125 743.88 451.034C711.297 400.271 649.916 404.325 595.344 406.144C582.348 406.577 570.891 415.106 567.101 427.545L552.434 475.679C549.009 486.918 538.641 494.597 526.892 494.597H462.455C462.446 494.597 462.441 494.587 462.448 494.58V494.58Z" fill="#212121"/>
<path d="M657.19 494.578C676.645 494.578 690.817 513.013 685.817 531.814L678.431 559.585C674.98 572.561 663.232 581.594 649.804 581.594H622.772C603.44 581.594 589.288 563.375 594.071 544.643L601.161 516.872C604.51 503.756 616.325 494.578 629.863 494.578H657.19Z" fill="#212121"/>
<path d="M387.033 416.82C406.441 416.82 420.606 435.173 415.689 453.947L410.84 472.461C407.427 485.491 395.654 494.579 382.184 494.579H361.966C342.557 494.579 328.393 476.226 333.31 457.451L338.159 438.937C341.571 425.907 353.345 416.82 366.814 416.82H387.033Z" fill="#212121"/>
<path d="M272.681 542.715C291.952 542.715 306.11 560.825 301.436 579.521V579.521C298.139 592.708 286.28 601.959 272.687 601.959V601.959C253.416 601.959 239.258 583.848 243.932 565.152V565.152C247.229 551.966 259.088 542.715 272.681 542.715V542.715Z" fill="#212121"/>
</svg>
