<svg width="1080" height="1080" viewBox="0 0 1080 1080" fill="none" xmlns="http://www.w3.org/2000/svg">
<rect width="1080" height="1080" fill="#212121"/>
<path d="M462.444 494.58C462.445 494.579 462.446 494.578 462.446 494.576L502.521 349.059C506.11 336.027 518.067 327.107 531.585 326.973C575.915 326.533 621.911 323.426 665.247 326.028C746.468 330.897 816.636 381.292 837.371 461.235C872.455 596.461 763.167 734.797 629.756 753.551C564.245 757.36 498.334 755.447 432.573 755.389C413.082 755.371 398.633 737.055 403.423 718.162L417.895 661.078C422.641 642.358 408.493 624.176 389.181 624.176H386.851C367.189 624.176 352.983 605.372 358.356 586.459L364.667 564.242C368.286 551.504 379.92 542.715 393.162 542.715H495.991C515.48 542.715 529.658 561.209 524.598 580.029L501.422 666.215C500.215 670.706 501.218 675.611 505.842 676.108V676.108C541.222 679.903 616.87 677.996 649.862 666.295C730.453 637.691 794.641 530.125 743.876 451.034C711.294 400.271 649.912 404.325 595.34 406.144C582.344 406.577 570.887 415.106 567.097 427.545L552.43 475.679C549.005 486.918 538.637 494.597 526.889 494.597H462.451C462.442 494.597 462.438 494.587 462.444 494.58V494.58Z" fill="#16FEED"/>
<path d="M657.186 494.578C676.641 494.578 690.814 513.013 685.813 531.814L678.427 559.585C674.976 572.561 663.228 581.594 649.8 581.594H622.769C603.436 581.594 589.284 563.375 594.067 544.643L601.157 516.872C604.506 503.756 616.321 494.578 629.859 494.578H657.186Z" fill="#16FEED"/>
<path d="M387.029 416.82C406.437 416.82 420.602 435.173 415.685 453.947L410.836 472.461C407.423 485.491 395.65 494.579 382.18 494.579H361.962C342.553 494.579 328.389 476.226 333.306 457.451L338.155 438.937C341.567 425.907 353.341 416.82 366.811 416.82H387.029Z" fill="#16FEED"/>
<path d="M272.677 542.715C291.948 542.715 306.106 560.825 301.432 579.521V579.521C298.135 592.708 286.276 601.959 272.684 601.959V601.959C253.412 601.959 239.254 583.848 243.928 565.152V565.152C247.225 551.966 259.084 542.715 272.677 542.715V542.715Z" fill="#16FEED"/>
</svg>
