<svg width="1856" height="1313" viewBox="0 0 1856 1313" fill="none" xmlns="http://www.w3.org/2000/svg">
<path d="M693.979 516.97C693.983 516.967 693.986 516.962 693.987 516.957L816.013 73.8669C826.942 34.1826 863.351 7.02293 904.51 6.61412C1039.49 5.27343 1179.55 -4.18692 1311.51 3.73622C1558.82 18.5626 1772.48 172.012 1835.61 415.435C1942.44 827.191 1609.67 1248.42 1203.44 1305.52C1003.96 1317.12 803.263 1311.29 603.024 1311.12C543.675 1311.06 499.68 1255.29 514.265 1197.76L558.331 1023.95C572.782 966.946 529.703 911.582 470.899 911.582H463.802C403.933 911.582 360.676 854.326 377.037 796.735L396.256 729.086C407.275 690.299 442.699 663.537 483.021 663.537H796.13C855.471 663.537 898.644 719.852 883.235 777.157L812.667 1039.59C808.99 1053.26 812.045 1068.2 826.126 1069.71V1069.71C933.856 1081.27 1164.2 1075.46 1264.66 1039.83C1510.05 952.735 1705.5 625.203 1550.93 384.373C1451.71 229.802 1264.81 242.148 1098.64 247.687C1059.07 249.006 1024.18 274.976 1012.64 312.851L967.983 459.417C957.556 493.637 925.985 517.021 890.211 517.021H694.001C693.974 517.021 693.961 516.989 693.979 516.97V516.97Z" fill="#16FEED"/>
<path d="M1286.96 516.965C1346.2 516.965 1389.36 573.098 1374.13 630.347L1351.64 714.908C1341.13 754.421 1305.36 781.923 1264.47 781.923H1182.16C1123.3 781.923 1080.21 726.448 1094.77 669.411L1116.36 584.85C1126.56 544.91 1162.53 516.965 1203.75 516.965H1286.96Z" fill="#16FEED"/>
<path d="M464.345 280.194C523.442 280.194 566.573 336.077 551.601 393.245L536.836 449.619C526.445 489.295 490.594 516.965 449.581 516.965H388.016C328.919 516.965 285.788 461.083 300.761 403.914L315.526 347.54C325.917 307.865 361.767 280.194 402.781 280.194H464.345Z" fill="#16FEED"/>
<path d="M116.158 663.538C174.838 663.538 217.948 718.684 203.716 775.613V775.613C193.678 815.766 157.568 843.935 116.179 843.935V843.935C57.4981 843.935 14.3881 788.788 28.6202 731.86V731.86C38.6586 691.707 74.7687 663.538 116.158 663.538V663.538Z" fill="#16FEED"/>
</svg>
