<svg width="1856" height="1313" viewBox="0 0 1856 1313" fill="none" xmlns="http://www.w3.org/2000/svg">
<path d="M694.183 516.97C694.186 516.967 694.189 516.962 694.19 516.957L816.216 73.8669C827.145 34.1826 863.554 7.02293 904.713 6.61412C1039.7 5.27343 1179.75 -4.18692 1311.71 3.73622C1559.02 18.5626 1772.68 172.012 1835.82 415.435C1942.65 827.191 1609.87 1248.42 1203.64 1305.52C1004.16 1317.12 803.466 1311.29 603.227 1311.12C543.878 1311.06 499.884 1255.29 514.468 1197.76L558.535 1023.95C572.985 966.946 529.906 911.582 471.102 911.582H464.005C404.136 911.582 360.879 854.326 377.24 796.735L396.459 729.086C407.478 690.299 442.902 663.537 483.224 663.537H796.334C855.675 663.537 898.847 719.852 883.438 777.157L812.87 1039.59C809.193 1053.26 812.248 1068.2 826.329 1069.71V1069.71C934.059 1081.27 1164.4 1075.46 1264.86 1039.83C1510.26 952.735 1705.71 625.203 1551.13 384.373C1451.92 229.802 1265.01 242.148 1098.85 247.687C1059.27 249.006 1024.39 274.976 1012.85 312.851L968.186 459.417C957.759 493.637 926.188 517.021 890.414 517.021H694.204C694.177 517.021 694.164 516.989 694.183 516.97V516.97Z" fill="#676767"/>
<path d="M1287.17 516.965C1346.41 516.965 1389.56 573.098 1374.34 630.347L1351.85 714.908C1341.34 754.421 1305.56 781.923 1264.68 781.923H1182.37C1123.5 781.923 1080.41 726.448 1094.97 669.411L1116.56 584.85C1126.76 544.91 1162.74 516.965 1203.96 516.965H1287.17Z" fill="#676767"/>
<path d="M464.548 280.194C523.645 280.194 566.776 336.077 551.804 393.245L537.039 449.619C526.648 489.295 490.797 516.965 449.784 516.965H388.219C329.123 516.965 285.991 461.083 300.964 403.914L315.729 347.54C326.12 307.865 361.97 280.194 402.984 280.194H464.548Z" fill="#676767"/>
<path d="M116.357 663.538C175.037 663.538 218.147 718.684 203.915 775.613V775.613C193.877 815.766 157.767 843.935 116.378 843.935V843.935C57.6973 843.935 14.5873 788.788 28.8194 731.86V731.86C38.8578 691.707 74.9679 663.538 116.357 663.538V663.538Z" fill="#676767"/>
</svg>
