<svg width="1856" height="1313" viewBox="0 0 1856 1313" fill="none" xmlns="http://www.w3.org/2000/svg">
<path d="M694.069 516.97C694.073 516.967 694.076 516.962 694.077 516.957L816.103 73.8669C827.032 34.1826 863.44 7.02293 904.6 6.61412C1039.58 5.27343 1179.64 -4.18692 1311.6 3.73622C1558.91 18.5626 1772.57 172.012 1835.7 415.435C1942.53 827.191 1609.76 1248.42 1203.53 1305.52C1004.05 1317.12 803.353 1311.29 603.114 1311.12C543.765 1311.06 499.77 1255.29 514.355 1197.76L558.421 1023.95C572.872 966.946 529.793 911.582 470.989 911.582H463.892C404.022 911.582 360.766 854.326 377.127 796.735L396.345 729.086C407.365 690.299 442.788 663.537 483.11 663.537H796.22C855.561 663.537 898.734 719.852 883.325 777.157L812.757 1039.59C809.08 1053.26 812.135 1068.2 826.215 1069.71V1069.71C933.946 1081.27 1164.29 1075.46 1264.75 1039.83C1510.14 952.735 1705.59 625.203 1551.02 384.373C1451.8 229.802 1264.9 242.148 1098.73 247.687C1059.16 249.006 1024.27 274.976 1012.73 312.851L968.073 459.417C957.645 493.637 926.075 517.021 890.301 517.021H694.09C694.064 517.021 694.051 516.989 694.069 516.97V516.97Z" fill="#212121"/>
<path d="M1287.05 516.965C1346.29 516.965 1389.45 573.098 1374.22 630.347L1351.73 714.908C1341.22 754.421 1305.45 781.923 1264.56 781.923H1182.25C1123.39 781.923 1080.3 726.448 1094.86 669.411L1116.45 584.85C1126.65 544.91 1162.62 516.965 1203.84 516.965H1287.05Z" fill="#212121"/>
<path d="M464.435 280.194C523.532 280.194 566.663 336.077 551.69 393.245L536.926 449.619C526.535 489.295 490.684 516.965 449.67 516.965H388.106C329.009 516.965 285.878 461.083 300.851 403.914L315.615 347.54C326.007 307.865 361.857 280.194 402.871 280.194H464.435Z" fill="#212121"/>
<path d="M116.244 663.538C174.924 663.538 218.034 718.684 203.802 775.613V775.613C193.764 815.766 157.654 843.935 116.264 843.935V843.935C57.584 843.935 14.4741 788.788 28.7062 731.86V731.86C38.7445 691.707 74.8547 663.538 116.244 663.538V663.538Z" fill="#212121"/>
</svg>
